<svg width="20" height="21" viewBox="0 0 20 21" fill="none" xmlns="http://www.w3.org/2000/svg">
<g clip-path="url(#clip0_207_836)">
<path d="M9.99996 13.8332C11.8409 13.8332 13.3333 12.3408 13.3333 10.4998C13.3333 8.65889 11.8409 7.1665 9.99996 7.1665C8.15901 7.1665 6.66663 8.65889 6.66663 10.4998C6.66663 12.3408 8.15901 13.8332 9.99996 13.8332Z" fill="#9E9E9E"/>
<path d="M19.3925 8.34907C18.1 6.24407 15.16 2.7124 10 2.7124C4.84004 2.7124 1.90004 6.24407 0.607543 8.34907C0.207983 8.99532 -0.00366211 9.7401 -0.00366211 10.4999C-0.00366211 11.2597 0.207983 12.0045 0.607543 12.6507C1.90004 14.7557 4.84004 18.2874 10 18.2874C15.16 18.2874 18.1 14.7557 19.3925 12.6507C19.7921 12.0045 20.0037 11.2597 20.0037 10.4999C20.0037 9.7401 19.7921 8.99532 19.3925 8.34907ZM10 15.4999C9.01114 15.4999 8.04444 15.2067 7.22219 14.6573C6.39995 14.1078 5.75908 13.327 5.38064 12.4133C5.00221 11.4997 4.90319 10.4944 5.09612 9.52445C5.28904 8.55455 5.76525 7.66363 6.46451 6.96437C7.16377 6.26511 8.05469 5.7889 9.02459 5.59598C9.9945 5.40305 10.9998 5.50207 11.9135 5.8805C12.8271 6.25894 13.608 6.89981 14.1574 7.72205C14.7068 8.5443 15 9.511 15 10.4999C14.9987 11.8256 14.4715 13.0966 13.5341 14.034C12.5967 14.9714 11.3257 15.4986 10 15.4999Z" fill="#9E9E9E"/>
</g>
<defs>
<clipPath id="clip0_207_836">
<rect width="20" height="20" fill="white" transform="translate(0 0.5)"/>
</clipPath>
</defs>
</svg>
