<svg width="16" height="17" viewBox="0 0 16 17" fill="none" xmlns="http://www.w3.org/2000/svg">
<path d="M14.537 7.1945H14V7.16683H7.99998V9.8335H11.7676C11.218 11.3858 9.74098 12.5002 7.99998 12.5002C5.79098 12.5002 3.99998 10.7092 3.99998 8.50016C3.99998 6.29116 5.79098 4.50016 7.99998 4.50016C9.01965 4.50016 9.94731 4.88483 10.6536 5.51316L12.5393 3.6275C11.3486 2.51783 9.75598 1.8335 7.99998 1.8335C4.31831 1.8335 1.33331 4.8185 1.33331 8.50016C1.33331 12.1818 4.31831 15.1668 7.99998 15.1668C11.6816 15.1668 14.6666 12.1818 14.6666 8.50016C14.6666 8.05316 14.6206 7.61683 14.537 7.1945Z" fill="#FFC107"/>
<path d="M2.10199 5.39716L4.29232 7.0035C4.88499 5.53616 6.32032 4.50016 7.99999 4.50016C9.01966 4.50016 9.94732 4.88483 10.6537 5.51316L12.5393 3.6275C11.3487 2.51783 9.75599 1.8335 7.99999 1.8335C5.43932 1.8335 3.21866 3.27916 2.10199 5.39716Z" fill="#FF3D00"/>
<path d="M8 15.1669C9.722 15.1669 11.2867 14.5079 12.4697 13.4362L10.4063 11.6902C9.71452 12.2164 8.86915 12.5009 8 12.5002C6.266 12.5002 4.79367 11.3946 4.239 9.85156L2.065 11.5266C3.16834 13.6856 5.409 15.1669 8 15.1669Z" fill="#4CAF50"/>
<path d="M14.537 7.19417H14V7.1665H8V9.83317H11.7677C11.5047 10.572 11.0311 11.2176 10.4053 11.6902L10.4063 11.6895L12.4697 13.4355C12.3237 13.5682 14.6667 11.8332 14.6667 8.49984C14.6667 8.05284 14.6207 7.6165 14.537 7.19417Z" fill="#1976D2"/>
</svg>
