<svg width="24" height="25" viewBox="0 0 24 25" fill="none" xmlns="http://www.w3.org/2000/svg">
<path fill-rule="evenodd" clip-rule="evenodd" d="M6.54548 10.6818V7.95455C6.54548 6.50791 7.12016 5.12053 8.14308 4.0976C9.16601 3.07467 10.5534 2.5 12 2.5C13.4467 2.5 14.834 3.07467 15.857 4.0976C16.8799 5.12053 17.4546 6.50791 17.4546 7.95455V10.6818H18.3637C19.8699 10.6818 21.0909 11.9029 21.0909 13.4091V19.7727C21.0909 21.279 19.8699 22.5 18.3637 22.5H5.63639C4.13016 22.5 2.90912 21.279 2.90912 19.7727V13.4091C2.90912 11.9029 4.13016 10.6818 5.63639 10.6818H6.54548ZM9.42873 5.38325C10.1107 4.7013 11.0356 4.31818 12 4.31818C12.9645 4.31818 13.8894 4.7013 14.5713 5.38325C15.2533 6.0652 15.6364 6.99012 15.6364 7.95455V10.6818H8.36366V7.95455C8.36366 6.99012 8.74678 6.0652 9.42873 5.38325ZM5.63639 12.5C5.13431 12.5 4.7273 12.907 4.7273 13.4091V19.7727C4.7273 20.2748 5.13431 20.6818 5.63639 20.6818H18.3637C18.8657 20.6818 19.2728 20.2748 19.2728 19.7727V13.4091C19.2728 12.907 18.8657 12.5 18.3637 12.5H5.63639Z" fill="#757575"/>
</svg>
