<svg width="24" height="24" viewBox="0 0 24 24" fill="none" xmlns="http://www.w3.org/2000/svg">
<path fill-rule="evenodd" clip-rule="evenodd" d="M2.00006 6.52985C1.99991 6.53883 1.9999 6.54779 2.00002 6.55676V17.4547C2.00002 18.9567 3.22521 20.1819 4.72728 20.1819H19.2727C20.7747 20.1819 21.9999 18.9567 21.9999 17.4547V6.55686C22 6.54782 22 6.53877 21.9999 6.52972C21.9913 5.03491 20.7694 3.81836 19.2727 3.81836H4.72728C3.23047 3.81836 2.0086 5.03499 2.00006 6.52985ZM3.91508 6.14012C4.06542 5.84283 4.37459 5.63653 4.72728 5.63653H19.2727C19.6254 5.63653 19.9345 5.84283 20.0849 6.14012L12 11.7995L3.91508 6.14012ZM20.1818 8.29166V17.4547C20.1818 17.9526 19.7706 18.3638 19.2727 18.3638H4.72728C4.22936 18.3638 3.81819 17.9526 3.81819 17.4547V8.29166L11.4786 13.654C11.7917 13.8731 12.2083 13.8731 12.5213 13.654L20.1818 8.29166Z" fill="#757575"/>
</svg>
